<svg width="560" height="560" viewBox="0 0 560 560" fill="none" xmlns="http://www.w3.org/2000/svg">
<g clip-path="url(#clip0_404_7)">
<path d="M551.591 347.733C514.195 497.735 362.268 589.023 212.249 551.617C62.2924 514.221 -28.9955 362.285 8.41696 212.295C45.7966 62.2774 197.724 -29.0174 347.696 8.37866C497.705 45.7747 588.987 197.728 551.587 347.736L551.59 347.733H551.591Z" fill="#F7931A"/>
<path d="M403.468 240.107C409.041 202.845 380.672 182.815 341.88 169.454L354.464 118.979L323.739 111.323L311.488 160.469C303.411 158.454 295.116 156.556 286.871 154.674L299.211 105.204L268.504 97.548L255.913 148.006C249.229 146.484 242.664 144.98 236.294 143.395L236.33 143.236L193.959 132.656L185.785 165.472C185.785 165.472 208.581 170.698 208.101 171.019C220.543 174.125 222.793 182.361 222.419 188.889L208.084 246.392C208.941 246.609 210.052 246.924 211.278 247.417C210.253 247.162 209.163 246.884 208.031 246.613L187.938 327.166C186.418 330.946 182.558 336.619 173.859 334.465C174.167 334.911 151.528 328.892 151.528 328.892L136.273 364.062L176.257 374.03C183.695 375.895 190.985 377.847 198.163 379.682L185.449 430.736L216.138 438.392L228.73 387.88C237.114 390.156 245.25 392.256 253.216 394.235L240.667 444.508L271.394 452.164L284.107 401.206C336.5 411.122 375.895 407.124 392.478 359.735C405.839 321.581 391.812 299.573 364.249 285.222C384.325 280.592 399.447 267.388 403.478 240.111L403.469 240.104L403.468 240.107ZM333.267 338.546C323.772 376.7 259.532 356.075 238.704 350.903L255.576 283.266C276.403 288.466 343.191 298.755 333.269 338.546H333.267ZM342.769 239.554C334.108 274.259 280.64 256.627 263.295 252.304L278.592 190.961C295.937 195.285 351.793 203.354 342.772 239.554H342.769Z" fill="white"/>
</g>
<defs>
<clipPath id="clip0_404_7">
<rect width="560" height="560" fill="white"/>
</clipPath>
</defs>
</svg>
